<?xml version="1.0" standalone="no"?>
<!DOCTYPE svg PUBLIC "-//W3C//DTD SVG 20010904//EN"
 "http://www.w3.org/TR/2001/REC-SVG-20010904/DTD/svg10.dtd">
<svg version="1.0" xmlns="http://www.w3.org/2000/svg"
 width="50.000000pt" height="50.000000pt" viewBox="0 0 50.000000 50.000000"
 preserveAspectRatio="xMidYMid meet">

<g transform="translate(0.000000,50.000000) scale(0.100000,-0.100000)"
fill="#FDBA74" stroke="none">
<path d="M232 443 c-52 -74 -46 -112 28 -162 28 -19 53 -45 56 -58 6 -23 7
-23 34 14 55 76 48 106 -36 163 -25 18 -49 41 -53 52 -7 20 -9 19 -29 -9z"/>
<path d="M157 261 c-25 -43 -21 -58 23 -89 21 -15 40 -34 40 -42 1 -21 50 36
50 59 0 13 -82 101 -94 101 -1 0 -9 -13 -19 -29z"/>
<path d="M125 80 c-4 -6 9 -10 30 -10 28 0 38 -5 42 -20 4 -16 14 -20 53 -20
39 0 49 4 53 20 4 15 14 20 42 20 21 0 34 4 30 10 -4 6 -57 10 -125 10 -68 0
-121 -4 -125 -10z"/>
</g>
</svg>
